{"title":"Drive Angry 2011 PPVRiP XviD - iLLUSiON","uid":6375438,"size":1264791022,"categoryP":"video","categoryS":"movies","magnet":"?xt=urn:btih:08355de90688cfb0acbe86b6d869532bcfcf3b04&amp;dn=Drive+Angry+2011+PPVRiP+XviD+-+iLLUSiON&amp;tr=udp%3A%2F%2Ftracker.openbittorrent.com%3A80&amp;tr=udp%3A%2F%2Fopen.demonii.com%3A1337&amp;tr=udp%3A%2F%2Ftracker.coppersurfer.tk%3A6969&amp;tr=udp%3A%2F%2Fexodus.desync.com%3A6969","seeders":0,"leechers":1,"uploader":"hiest","files":-1,"time":1304844662,"description":"#### ##       ##       ##     ##  ######  ####  #######  ##    ## \n ##  ##       ##       ##     ## ##    ##  ##  ##     ## ###   ## \n ##  ##       ##       ##     ## ##        ##  ##     ## ####  ## \n ##  ##       ##       ##     ##  ######   ##  ##     ## ## ## ## \n ##  ##       ##       ##     ##       ##  ##  ##     ## ##  #### \n ##  ##       ##       ##     ## ##    ##  ##  ##     ## ##   ### \n#### ######## ########  #######   ######  ####  #######  ##    ## \n\n\nMovie Info\n\nPlot: A vengeful father escapes from hell and chases \n after the men who killed his daughter and kidnapped his granddaughter. \n\n IMDB:  &lt;a href=&quot;\nhttp://www.imdb.com/title/tt1502404/&quot; rel=&quot;nofollow&quot; target=&quot;_NEW&quot;&gt;\nhttp://www.imdb.com/title/tt1502404/&lt;/a&gt;\n\n IMDB Rating: 6.1\n\n\n\nGeneral Info\n\nSize: 1.14GB\n Format: AVI\n Runtime: 1:43:41\n\n\n\nSources\n\nVideo - Drive Angry 2011 PPVRIP IFLIX\n Audio - Drive Angry 2011 PPVRIP IFLIX\n (THANKS)\n\n\n\nVideo Info\n\nID : 0\n Format : MPEG-4 Visual\n Format profile : Advanced Simple@L5\n Format settings, BVOP : 2\n Format settings, QPel : No\n Format settings, GMC : No warppoints\n Format settings, Matrix : Default (H.263)\n Muxing mode : Packed bitstream\n Codec ID : XVID\n Codec ID/Hint : XviD\n Duration : 1h 43mn\n Bit rate : 1 447 Kbps\n Width : 704 pixels\n Height : 400 pixels\n Display aspect ratio : 16:9\n Frame rate : 29.970 fps\n Color space : YUV\n Chroma subsampling : 4:2:0\n Bit depth : 8 bits\n Scan type : Progressive\n Compression mode : Lossy\n Bits/(Pixel*Frame) : 0.171\n Stream size : 1.05 GiB (91%)\n Writing library : XviD 58\n\n\nAudio Info\nID : 1\n Format : MPEG Audio\n Format version : Version 1\n Format profile : Layer 3\n Mode : Joint stereo\n Mode extension : MS Stereo\n Codec ID : 55\n Codec ID/Hint : MP3\n Duration : 1h 43mn\n Bit rate mode : Constant\n Bit rate : 128 Kbps\n Channel(s) : 2 channels\n Sampling rate : 44.1 KHz\n Compression mode : Lossy\n Stream size : 94.7 MiB (8%)\n Alignment : Split accross interleaves\n Interleave, duration : 33 ms (1.00 video frame)\n Interleave, preload duration : 501 ms\n\n\nEncoders Notes\nI made a small script to crop &amp; re-size.\n I dropped that into vdubmod.\n There i lowered the brightness,\n increased the contrast, gamma &amp; satiration.\n Then i de-noised it, used a color de-noiser,\n changed the colors with a rgb eq &amp; sharpened it.\n Finaly i re-encoded the audio &amp; muxed it back to the video.\n It looks realy good imo.\n Download the sample first to check that your happy with the quality.\n Enjoy... \n\n\nI am looking for:\n Cammers, Cams, Screeners (any type), Cam audio, Line audio, \n Un-released R6's R5's R4's R2's R1's, \n A Windows Server &amp; a syncer. \n If you can provide any of these please\n contact me at &lt;a class=&quot;__cf_email__&quot; href=&quot;/cdn-cgi/l/email-protection&quot; data-cfemail=&quot;fd949191888e949293bd95888e95909c9491d39098&quot;&gt;[email&amp;#160;protected]&lt;/a&gt;&lt;script cf-hash='f9e31' type=&quot;text/javascript&quot;&gt;\n/* &lt;![CDATA[ */!function(){try{var t=&quot;currentScript&quot;in document?document.currentScript:function(){for(var t=document.getElementsByTagName(&quot;script&quot;),e=t.length;e--;)if(t[e].getAttribute(&quot;cf-hash&quot;))return t[e]}();if(t&amp;&amp;t.previousSibling){var e,r,n,i,c=t.previousSibling,a=c.getAttribute(&quot;data-cfemail&quot;);if(a){for(e=&quot;&quot;,r=parseInt(a.substr(0,2),16),n=2;a.length-n;n+=2)i=parseInt(a.substr(n,2),16)^r,e+=String.fromCharCode(i);e=document.createTextNode(e),c.parentNode.replaceChild(e,c)}}}catch(u){}}();/* ]]&gt; */&lt;/script&gt;\n\n\nGreetz &amp; Respect:\n ChattChitto RG, Hunter, iNK, DiNGiE, Recalled2Life,\n Xclusive666, IFLIX, Demedic, ELEKTRI4KA, hiest, Feel-Free, \n StoNerS, every uploader &amp; encoder out there.\n\n\n\n\n==================================   &lt;a href=&quot;\nhttp://thepiratebay.se/user/hiest&quot; rel=&quot;nofollow&quot; target=&quot;_NEW&quot;&gt;\nhttp://thepiratebay.se/user/hiest&lt;/a&gt;\n==================================\n\n\n\n\nScreenshots:\n &lt;a href=&quot;\nhttp://images2.shareimage.org/images/xy8x8ka1mwv5l1207zg.jpg&quot; rel=&quot;nofollow&quot; target=&quot;_NEW&quot;&gt;\nhttp://images2.shareimage.org/images/xy8x8ka1mwv5l1207zg.jpg&lt;/a&gt;\n &lt;a href=&quot;\nhttp://images2.shareimage.org/images/wanv0c273vx84rkoqzj2.jpg&quot; rel=&quot;nofollow&quot; target=&quot;_NEW&quot;&gt;\nhttp://images2.shareimage.org/images/wanv0c273vx84rkoqzj2.jpg&lt;/a&gt;\n &lt;a href=&quot;\nhttp://images4.shareimage.org/images/veuju1uzipqv5yr38k.jpg&quot; rel=&quot;nofollow&quot; target=&quot;_NEW&quot;&gt;\nhttp://images4.shareimage.org/images/veuju1uzipqv5yr38k.jpg&lt;/a&gt;\n &lt;a href=&quot;\nhttp://images.shareimage.org/images/flywhkol3gdt3aov9vlb.jpg&quot; rel=&quot;nofollow&quot; target=&quot;_NEW&quot;&gt;\nhttp://images.shareimage.org/images/flywhkol3gdt3aov9vlb.jpg&lt;/a&gt;\n &lt;a href=&quot;\nhttp://images.shareimage.org/images/92ta6rewp9cxl1p0pd6c.jpg&quot; rel=&quot;nofollow&quot; target=&quot;_NEW&quot;&gt;\nhttp://images.shareimage.org/images/92ta6rewp9cxl1p0pd6c.jpg&lt;/a&gt;\n &lt;a href=&quot;\nhttp://images4.shareimage.org/images/s79d55fqqb5cwd886a41.jpg&quot; rel=&quot;nofollow&quot; target=&quot;_NEW&quot;&gt;\nhttp://images4.shareimage.org/images/s79d55fqqb5cwd886a41.jpg&lt;/a&gt;\n\n\n#### ##       ##       ##     ##  ######  ####  #######  ##    ## \n ##  ##       ##       ##     ## ##    ##  ##  ##     ## ###   ## \n ##  ##       ##       ##     ## ##        ##  ##     ## ####  ## \n ##  ##       ##       ##     ##  ######   ##  ##     ## ## ## ## \n ##  ##       ##       ##     ##       ##  ##  ##     ## ##  #### \n ##  ##       ##       ##     ## ##    ##  ##  ##     ## ##   ### \n#### ######## ########  #######   ######  ####  #######  ##    ## \n","torrent":{"xt":"urn:btih:08355de90688cfb0acbe86b6d869532bcfcf3b04","amp;dn":"Drive+Angry+2011+PPVRiP+XviD+-+iLLUSiON","amp;tr":["udp%3A%2F%2Ftracker.openbittorrent.com%3A80","udp%3A%2F%2Fopen.demonii.com%3A1337","udp%3A%2F%2Ftracker.coppersurfer.tk%3A6969","udp%3A%2F%2Fexodus.desync.com%3A6969"],"infoHash":"08355de90688cfb0acbe86b6d869532bcfcf3b04","infoHashBuffer":{"type":"Buffer","data":[8,53,93,233,6,136,207,176,172,190,134,182,216,105,83,43,207,207,59,4]},"announce":[],"urlList":[]}}